<?xml version="1.0" standalone="no"?>
<!DOCTYPE svg PUBLIC "-//W3C//DTD SVG 20010904//EN"
 "http://www.w3.org/TR/2001/REC-SVG-20010904/DTD/svg10.dtd">
<svg version="1.0" xmlns="http://www.w3.org/2000/svg"
 width="1920.000000pt" height="1080.000000pt" viewBox="0 0 1920.000000 1080.000000"
 preserveAspectRatio="xMidYMid meet">
<metadata>
Created by potrace 1.16, written by Peter Selinger 2001-2019
</metadata>
<g transform="translate(0.000000,1080.000000) scale(0.100000,-0.100000)"
fill="#000000" stroke="none">
<path d="M0 5400 l0 -5400 9600 0 9600 0 0 5400 0 5400 -9600 0 -9600 0 0
-5400z m2155 3831 c169 -1 188 -3 171 -16 -11 -8 -29 -15 -41 -15 -29 0 -50
-43 -30 -60 8 -7 12 -16 9 -21 -5 -8 18 -16 66 -21 20 -3 26 -10 33 -46 8 -42
9 -43 27 -27 24 22 70 13 70 -14 0 -10 7 -24 15 -31 18 -15 10 -31 -10 -23 -8
3 -15 0 -15 -6 0 -6 5 -11 10 -11 6 0 21 -9 32 -20 15 -14 29 -18 42 -13 12 4
29 7 39 7 9 0 17 4 17 8 0 4 5 8 10 8 21 0 9 -31 -15 -40 l-26 -10 20 -39 c11
-21 29 -41 41 -44 13 -3 18 -10 14 -21 -3 -9 -10 -13 -15 -10 -5 3 -9 2 -9 -3
0 -10 50 -53 62 -53 13 0 38 -26 38 -41 0 -6 -7 -17 -15 -23 -8 -6 -17 -21
-20 -34 -3 -19 -1 -22 15 -17 16 5 20 2 20 -14 0 -12 -7 -21 -15 -21 -8 0 -15
-4 -15 -10 0 -5 12 -10 26 -10 22 0 25 -4 21 -21 -7 -25 23 -58 62 -69 14 -4
25 -12 24 -18 -2 -6 7 -9 18 -7 18 4 19 2 8 -13 -7 -9 -10 -14 -5 -10 5 4 18
1 30 -7 11 -8 30 -15 42 -15 11 0 29 -9 38 -19 11 -12 38 -21 72 -26 30 -3 54
-11 54 -16 0 -6 5 -7 10 -4 6 3 10 1 10 -4 0 -6 21 -11 49 -11 49 0 115 -32
117 -58 1 -7 2 -17 3 -24 0 -6 4 -9 7 -6 8 9 67 -49 61 -59 -3 -5 -2 -15 3
-23 7 -12 12 -12 22 -2 9 9 9 12 0 12 -7 0 -12 9 -12 20 0 25 20 26 27 1 2
-10 17 -24 31 -30 22 -9 24 -9 12 1 -20 16 -14 52 7 44 8 -3 20 -3 26 1 7 4 2
10 -13 14 -25 7 -25 7 4 8 23 1 27 5 23 21 -3 11 0 23 5 27 7 4 8 1 3 -7 -5
-9 -4 -11 3 -6 13 8 16 36 5 36 -5 0 -13 11 -20 25 -7 15 -7 25 -1 25 5 0 9
12 7 28 -1 15 1 34 4 42 9 22 4 74 -8 82 -5 4 -11 12 -11 18 -1 5 -2 11 -4 13
-1 1 -3 9 -5 17 -2 8 -6 29 -10 45 -3 17 -7 51 -8 77 -1 33 -6 48 -16 48 -8 0
-11 6 -7 16 3 9 6 26 6 39 0 23 19 50 41 57 14 5 21 138 8 138 -5 0 -9 6 -9
14 0 8 -5 17 -10 19 -6 3 -5 4 2 3 20 -4 38 20 38 49 0 51 15 63 85 70 36 4
65 11 65 15 0 4 9 17 20 30 17 19 25 52 22 81 -2 9 -35 9 2173 14 1084 3 2020
2 2080 -1 l110 -7 2 -51 c1 -28 4 -111 8 -183 9 -173 2 -232 -34 -272 -15 -17
-33 -31 -40 -31 -7 0 -10 -4 -7 -9 4 -5 -3 -7 -14 -4 -11 3 -20 1 -20 -5 0
-12 -87 -33 -107 -25 -7 3 -13 0 -13 -6 0 -6 -8 -11 -17 -11 -13 0 -14 -3 -5
-12 8 -8 8 -15 1 -24 -9 -10 -5 -13 18 -12 75 3 137 -16 185 -56 l38 -31 0
-176 c0 -211 -4 -226 -72 -297 -23 -24 -131 -28 -203 -7 -30 8 -76 17 -102 20
-26 3 -70 7 -97 10 -52 5 -76 -4 -116 -47 -16 -17 -20 -35 -20 -89 0 -61 2
-68 23 -76 12 -4 139 -8 282 -8 l260 0 3 -51 c4 -75 -4 -79 -162 -80 -72 0
-176 3 -231 7 -124 10 -179 -1 -193 -39 -49 -129 -56 -242 -23 -395 40 -187
57 -692 24 -716 -4 -3 -9 -17 -11 -31 -2 -14 -9 -30 -16 -35 -7 -6 -16 -20
-20 -33 -4 -13 -20 -38 -35 -55 -23 -27 -41 -66 -45 -99 -3 -20 -14 -15 -19 9
-10 45 -62 93 -102 93 -18 0 -35 -6 -38 -12 -5 -17 -36 8 -47 38 -11 29 -45
34 -265 37 -150 2 -180 4 -183 17 -3 18 -123 25 -153 10 -13 -7 -30 -5 -59 6
-33 13 -38 19 -29 30 7 8 9 17 6 21 -11 10 14 33 36 33 11 0 18 2 15 5 -10 10
-215 -35 -278 -61 -33 -13 -71 -24 -84 -24 -14 0 -27 -4 -30 -9 -6 -9 -35 -14
-143 -27 -29 -4 -53 -10 -53 -15 0 -5 -7 -6 -16 -2 -14 5 -16 2 -10 -22 6 -22
4 -26 -8 -22 -8 3 -22 -3 -31 -13 -9 -10 -36 -23 -61 -30 -25 -7 -48 -19 -51
-26 -3 -8 2 -35 11 -60 9 -26 14 -50 11 -54 -2 -3 -52 -7 -111 -8 -58 -1 -110
-5 -116 -8 -6 -4 -7 -92 -3 -233 l7 -228 -211 -7 c-116 -4 -215 -5 -220 -2 -5
3 -9 32 -9 64 0 74 -49 179 -85 181 -40 1 -92 1 -117 -2 -33 -3 -41 36 -11 53
25 13 27 37 6 66 -8 12 -11 24 -8 28 3 3 -3 6 -14 6 -13 0 -25 10 -32 29 -10
24 -20 30 -58 35 -73 10 -101 7 -141 -13 -20 -10 -57 -21 -82 -25 -26 -4 -57
-16 -70 -29 -25 -22 -65 -29 -87 -14 -6 4 -14 3 -17 -2 -3 -5 -15 -7 -26 -4
-28 7 -25 -5 7 -33 24 -20 25 -26 15 -49 -14 -31 -15 -48 -3 -40 5 3 12 1 15
-4 4 -5 -6 -10 -21 -10 -55 0 -88 -16 -91 -44 -3 -24 -8 -27 -63 -33 -33 -4
-62 -11 -65 -15 -3 -5 -18 -9 -33 -9 -15 0 -35 -6 -46 -13 -34 -26 -7 -37 89
-37 63 0 97 -4 104 -13 15 -18 28 -319 14 -343 -8 -14 -20 -18 -51 -15 -23 1
-41 -2 -41 -7 0 -6 -27 -1 -60 10 -59 20 -90 19 -90 -3 0 -8 13 -10 43 -5 24
4 36 3 29 -2 -13 -9 -6 -42 12 -54 5 -4 23 -4 38 -1 21 4 28 2 28 -11 0 -9 -6
-16 -12 -16 -9 0 -8 -4 2 -10 8 -5 32 -10 53 -10 31 0 39 -4 48 -26 5 -15 7
-30 3 -33 -11 -11 -112 -5 -128 8 -12 10 -16 10 -16 1 0 -7 -7 -10 -15 -6 -8
3 -15 1 -15 -4 0 -5 -12 -8 -27 -7 -20 2 -29 9 -33 27 -3 15 -15 26 -29 30
-13 3 -28 14 -32 25 -4 11 -8 14 -8 6 -1 -7 -7 -11 -14 -8 -9 3 -11 -6 -8 -36
2 -27 0 -37 -7 -33 -6 4 -20 -2 -32 -14 -11 -11 -31 -20 -45 -20 -14 0 -25 -5
-25 -11 0 -6 8 -8 19 -4 21 6 36 -9 26 -25 -5 -8 -11 -8 -19 -1 -7 6 -16 8
-20 3 -4 -4 -12 2 -18 12 -8 15 -12 16 -19 5 -7 -10 -11 -11 -16 -3 -9 13 -81
13 -100 1 -7 -5 -18 -5 -24 -1 -6 3 -14 2 -18 -4 -7 -12 -41 13 -59 43 -10 18
-11 18 -12 3 0 -28 -18 -21 -41 15 -12 17 -18 23 -14 12 4 -11 9 -29 12 -40 4
-17 2 -17 -16 5 -11 14 -26 37 -33 52 -9 20 -16 24 -25 16 -10 -8 -13 -3 -13
26 0 20 4 36 9 36 5 0 4 13 -2 30 -8 22 -8 33 0 41 8 8 14 1 23 -25 6 -20 16
-34 20 -31 5 3 15 -3 22 -15 7 -11 20 -20 29 -20 9 0 20 -7 23 -16 4 -10 12
-14 23 -10 9 4 24 -1 34 -10 12 -10 38 -17 72 -18 49 -2 54 0 49 18 -4 15 -1
18 12 13 14 -6 16 -3 11 14 -6 18 -4 20 16 14 21 -7 22 -6 10 8 -7 9 -18 14
-24 10 -5 -3 -7 -2 -4 3 3 6 1 16 -4 24 -8 13 -10 13 -19 0 -7 -12 -12 -12
-21 -3 -9 9 -16 9 -25 2 -8 -7 -23 -3 -48 12 -20 11 -43 18 -51 15 -8 -3 -15
0 -15 6 0 9 -3 9 -12 0 -9 -9 -16 -8 -31 6 -10 9 -22 16 -26 16 -3 -1 -16 7
-29 17 -22 17 -23 22 -19 129 2 61 9 116 14 121 6 6 60 21 119 34 153 32 161
37 169 96 4 26 4 62 0 80 -10 45 3 119 21 119 8 0 18 8 21 18 4 9 16 26 26 37
11 11 16 14 12 6 -5 -9 -4 -12 3 -7 17 10 15 53 -3 60 -8 3 -15 14 -15 25 0
11 -4 23 -10 26 -5 3 -10 15 -10 26 0 10 -5 19 -11 19 -5 0 -7 5 -4 10 3 6 2
10 -3 10 -5 0 -13 -51 -18 -112 l-8 -113 -8 80 c-5 44 -7 115 -6 158 3 72 2
78 -17 83 -31 8 -58 12 -76 13 -15 1 -39 39 -39 61 0 6 26 10 58 10 36 0 52 3
43 9 -7 5 -11 13 -7 19 3 5 -3 20 -14 32 -11 13 -20 26 -20 30 0 14 25 27 48
25 26 -2 70 49 52 60 -5 3 -10 14 -10 25 0 10 -10 20 -23 24 -23 5 -153 21
-267 31 -87 9 -89 9 -84 17 3 4 12 8 20 8 8 0 14 6 13 13 -1 6 -1 17 0 23 2
17 93 50 221 79 63 15 125 31 138 36 25 10 30 47 7 55 -8 4 -13 9 -11 13 2 3
-34 6 -81 6 -91 0 -87 -2 -113 55 -4 8 -26 19 -48 24 -29 6 -44 15 -48 30 -4
11 -14 26 -23 33 -14 10 -12 11 11 8 22 -4 25 -2 21 15 -3 11 -9 18 -13 15 -4
-3 -7 11 -5 31 4 35 3 36 -16 18 -11 -10 -20 -14 -19 -9 2 6 1 12 0 15 -1 3
-3 13 -5 23 -3 14 0 16 9 8 19 -16 28 0 11 19 -18 20 -9 94 11 86 8 -3 11 0 7
10 -3 8 -12 13 -19 10 -8 -3 -14 -1 -14 4 0 6 5 10 11 10 8 0 7 6 -2 17 -12
15 -12 16 1 8 13 -7 13 -6 2 7 -10 13 -10 17 3 22 8 3 15 11 15 18 0 9 -3 9
-12 0 -17 -17 -31 -15 -25 2 4 10 1 13 -9 9 -12 -4 -14 1 -10 23 2 16 5 34 5
40 1 7 11 14 22 17 15 4 20 11 15 23 -5 13 -2 15 19 10 18 -5 23 -3 19 8 -3 8
-1 17 5 21 6 3 10 16 10 28 -1 17 -2 18 -6 5 -2 -10 -12 -18 -21 -17 -12 0
-13 2 -4 6 10 4 8 9 -7 20 -12 8 -21 25 -21 39 0 13 -7 27 -15 30 -8 3 -17 14
-20 25 -5 14 -11 17 -23 10 -20 -11 -61 12 -43 24 6 3 11 1 11 -4 0 -6 8 -3
19 8 12 12 17 27 14 45 -5 22 -11 26 -42 28 -50 2 -54 2 -70 12 -10 7 -12 6
-6 -4 6 -10 4 -12 -8 -7 -11 4 -19 -2 -26 -21 -9 -26 -9 -26 -10 -4 -1 17 -6
22 -18 20 -10 -2 -18 -10 -18 -18 0 -8 -8 -21 -17 -28 -10 -7 -15 -19 -11 -28
4 -10 -2 -17 -16 -21 -27 -7 -28 -23 -1 -23 11 0 20 -5 20 -10 0 -17 -29 -23
-45 -10 -13 11 -18 10 -29 -5 -9 -13 -19 -16 -32 -10 -12 5 -15 9 -6 12 6 3
12 10 12 17 0 7 9 22 20 34 12 12 17 22 13 22 -13 -1 -38 -24 -41 -39 -1 -7
-9 -20 -17 -28 -18 -17 -70 -9 -79 12 -9 24 -45 12 -60 -20 -22 -47 -31 -105
-15 -105 8 0 5 -6 -7 -16 -16 -13 -16 -15 -1 -10 25 8 22 -31 -4 -45 -17 -9
-20 -8 -13 3 6 11 5 11 -9 -1 -15 -12 -18 -10 -26 10 -5 15 -5 26 1 30 21 13
-44 19 -81 7 -47 -15 -60 -43 -31 -68 27 -24 35 -64 16 -83 -9 -8 -16 -27 -16
-41 0 -18 -4 -24 -15 -20 -8 4 -15 2 -15 -4 0 -6 6 -13 13 -15 7 -3 5 -6 -5
-6 -10 -1 -18 -5 -18 -11 0 -5 -8 -10 -17 -10 -14 0 -15 -2 -4 -9 7 -5 9 -11
5 -13 -16 -9 -89 -3 -89 7 0 19 -27 75 -36 75 -5 0 -6 11 -3 26 5 18 1 29 -12
39 -23 17 -38 19 -28 3 4 -7 3 -8 -4 -4 -7 4 -8 16 -4 29 4 12 7 36 7 52 0 23
-4 30 -18 29 -14 -2 -17 4 -13 27 5 31 -10 38 -33 17 -11 -11 -12 -9 -7 12 14
50 12 55 -19 55 -39 0 -47 31 -11 45 32 12 42 50 27 100 -11 38 -46 72 -109
104 -52 27 -35 40 58 46 99 7 120 24 121 99 0 25 2 70 4 100 4 61 -13 114 -42
129 -10 5 -59 17 -109 27 l-91 17 -76 -42 c-42 -23 -91 -44 -109 -47 -71 -11
-88 -41 -88 -152 0 -40 -9 -77 -30 -127 -39 -94 -60 -229 -60 -391 0 -81 -4
-134 -10 -138 -17 -10 -37 13 -43 48 -2 18 -16 64 -31 102 -14 39 -26 81 -26
95 0 14 -7 36 -15 50 -8 14 -14 35 -15 47 0 18 -7 23 -42 27 -63 8 -441 18
-690 19 l-218 0 0 74 c0 67 2 73 17 64 10 -5 26 -5 39 -1 12 5 24 7 26 4 4 -4
249 -17 308 -16 14 0 120 0 235 0 236 0 267 1 274 7 7 7 -31 205 -41 211 -4 3
-8 15 -8 27 0 13 -6 32 -14 43 -8 11 -16 38 -18 59 -3 44 -11 49 -93 63 -206
36 -234 49 -335 161 -39 43 -75 144 -84 234 -2 26 -8 53 -14 60 -5 7 -10 62
-11 122 -2 105 -7 148 -19 170 -10 17 -7 115 3 118 9 3 659 2 1140 -2z m8492
-167 c12 -3 23 -15 25 -26 3 -19 15 -20 418 -25 880 -11 1025 -16 1022 -35 -2
-12 3 -15 17 -11 20 5 42 -18 23 -25 -15 -5 -16 -22 -1 -22 6 0 25 -12 44 -26
l34 -25 -24 -52 c-13 -29 -38 -67 -54 -85 -34 -37 -57 -102 -67 -192 -4 -33
-11 -60 -15 -60 -5 0 -9 -4 -9 -10 0 -5 7 -10 15 -10 8 0 15 -9 15 -20 0 -31
20 -23 36 15 18 43 18 72 0 82 -11 7 -11 15 0 54 l14 46 57 -13 c41 -9 61 -10
70 -2 11 8 13 -15 13 -124 l0 -134 -30 -22 c-29 -22 -30 -25 -29 -100 0 -42 4
-103 8 -135 8 -66 17 -59 -103 -77 -38 -6 -73 -13 -78 -16 -4 -3 -8 -61 -8
-130 l0 -124 70 0 70 0 0 -95 0 -95 -44 0 -44 0 -6 -52 c-7 -51 -8 -53 -39
-54 -18 -1 -44 -5 -59 -9 -25 -7 -28 -5 -28 18 0 13 -3 39 -6 56 l-6 31 -118
0 c-81 0 -120 -4 -122 -12 -3 -7 -12 -6 -30 6 -25 16 -28 16 -52 1 -14 -10
-26 -25 -26 -34 0 -9 -7 -29 -15 -45 -8 -16 -14 -36 -13 -45 2 -12 -5 -16 -27
-16 l-30 -1 -5 -78 c-6 -87 -1 -101 29 -93 14 3 21 0 21 -9 0 -18 -18 -17 -50
1 -14 8 -38 14 -54 15 -21 0 -40 12 -70 44 -23 24 -53 51 -68 61 -18 11 -32
32 -39 59 -6 22 -19 61 -30 86 -10 25 -27 70 -37 100 l-18 55 -154 3 c-84 1
-159 7 -165 12 -16 14 -25 2 -26 -34 0 -17 -5 -40 -10 -51 -7 -14 -8 -7 -4 28
l5 48 -110 -2 c-60 -1 -113 -5 -118 -8 -5 -3 -12 -18 -15 -32 -4 -15 -17 -45
-31 -68 l-23 -42 -7 80 c-4 45 -7 84 -7 88 0 5 27 10 58 13 58 5 58 5 61 40
l3 35 -34 -33 -34 -33 -90 7 -90 7 -7 104 c-4 58 -5 108 -1 111 4 4 32 12 63
19 l57 12 -81 -3 -82 -3 -6 191 c-9 272 -14 683 -8 734 l4 42 52 0 c28 0 56
-4 61 -8 31 -21 125 -158 125 -181 0 -14 9 -51 20 -81 l19 -55 -5 80 c-7 95
-20 215 -34 308 -6 38 -8 73 -4 78 6 10 38 12 71 3z m2261 -180 c16 -11 22
-25 22 -51 0 -51 -23 -73 -77 -73 l-43 0 0 70 0 70 38 0 c21 0 48 -7 60 -16z
m832 -78 c0 -59 -7 -66 -63 -66 -21 0 -28 -3 -19 -9 11 -6 10 -9 -5 -14 -17
-5 -196 -75 -236 -92 -13 -5 -16 -4 -11 9 3 9 34 32 68 53 33 20 75 47 92 60
l31 23 11 -22 c10 -22 11 -21 11 9 1 17 6 35 11 38 6 4 8 15 5 26 -5 16 -1 19
22 19 15 0 35 5 43 10 32 20 40 11 40 -44z m3443 -85 c18 -16 24 -47 7 -36
-10 6 -15 -10 -10 -30 1 -5 3 -16 3 -22 0 -8 5 -9 11 -4 6 5 19 7 29 6 9 -2
17 3 17 11 0 16 9 18 28 5 11 -7 10 -9 -3 -15 -9 -3 -13 -11 -10 -17 4 -6 14
-8 22 -5 9 4 17 -1 20 -13 3 -11 11 -22 19 -25 16 -6 19 10 4 19 -5 3 -10 11
-10 17 0 7 6 6 15 -2 11 -9 18 -10 28 -1 11 8 18 6 32 -9 13 -14 14 -20 5 -20
-7 0 -10 -3 -7 -7 4 -3 16 2 27 12 20 18 20 18 20 -48 0 -43 -4 -67 -12 -70
-10 -3 -10 -9 0 -26 7 -12 10 -26 7 -31 -3 -5 -81 -10 -173 -10 -92 -1 -233
-4 -314 -6 l-146 -5 5 22 c4 15 3 20 -6 15 -6 -4 -9 -11 -6 -16 3 -5 1 -11 -5
-15 -17 -10 -201 -14 -194 -4 3 5 12 9 20 9 9 0 12 5 8 12 -5 8 0 9 14 6 23
-6 28 6 14 30 -5 8 -16 10 -27 6 -13 -5 -16 -4 -11 5 5 7 17 11 27 8 11 -3 19
-1 19 5 0 5 5 6 11 2 6 -3 9 -15 6 -25 -3 -11 -1 -17 4 -13 5 3 9 0 9 -5 0 -6
5 -11 11 -11 6 0 9 7 6 15 -4 8 -2 17 3 20 6 4 10 -3 10 -14 0 -12 6 -21 14
-21 19 0 29 17 16 25 -19 11 -10 25 14 23 14 -1 24 -6 23 -11 -1 -5 8 -11 21
-13 14 -3 22 1 22 11 0 8 7 15 15 15 17 0 20 -31 5 -46 -7 -7 -6 -11 4 -11 8
0 13 4 10 9 -3 4 1 8 9 8 8 0 17 7 20 14 4 11 1 13 -10 9 -11 -4 -14 -2 -9 5
9 14 -23 64 -36 56 -5 -3 -4 -12 3 -20 10 -12 9 -13 -5 -8 -20 8 -20 13 1 36
20 23 33 23 33 1 0 -10 7 -27 15 -37 14 -19 15 -19 15 8 0 15 -4 25 -9 22 -5
-4 0 13 11 36 21 42 21 43 31 18 6 -14 11 -28 11 -32 1 -11 5 -11 48 -3 29 5
37 12 41 33 3 15 3 29 1 32 -8 8 -38 -16 -50 -39 -11 -22 -11 -22 -17 -2 -3
12 -1 24 4 27 5 3 7 10 4 15 -4 5 8 9 24 9 17 0 31 4 31 10 0 6 9 6 25 0 23
-9 25 -8 15 10 -14 27 -3 25 20 -2 15 -19 21 -21 31 -10 10 9 10 12 1 12 -7 0
-12 8 -12 18 0 10 -4 22 -10 28 -6 6 -2 10 13 10 12 0 25 -4 28 -8 9 -14 35 1
36 22 1 13 -3 17 -14 13 -13 -5 -15 -2 -10 11 4 10 3 15 -3 11 -12 -7 -14 18
-3 29 5 4 12 0 18 -10 5 -9 18 -24 28 -33z m-4383 -407 c0 -41 5 -50 45 -90
44 -42 55 -73 37 -102 -5 -7 -16 -10 -24 -7 -11 4 -19 -1 -23 -16 -4 -12 -45
-60 -91 -106 -46 -46 -91 -97 -99 -113 -10 -19 -20 -27 -30 -24 -8 4 -15 10
-15 15 0 16 -38 10 -81 -13 -43 -22 -91 -79 -115 -137 -11 -26 -18 -32 -31
-26 -10 4 -26 9 -35 12 -15 4 -17 20 -17 114 0 60 2 115 5 124 4 10 20 15 46
15 47 0 64 12 171 118 l77 77 -6 56 c-4 34 -2 71 5 91 11 32 16 36 64 45 29 6
67 11 85 12 32 1 32 0 32 -45z m4612 -171 c-2 -65 -12 -269 -23 -452 -10 -184
-19 -359 -19 -389 l0 -54 -374 7 c-361 8 -374 7 -379 -11 -4 -11 -11 -145 -17
-299 -6 -154 -13 -286 -15 -292 -3 -7 -11 -13 -18 -13 -11 0 -13 12 -9 50 3
37 1 51 -9 54 -13 4 -505 20 -1063 35 -131 3 -243 3 -248 -1 -6 -3 -28 -127
-49 -275 -47 -330 -47 -333 -62 -333 -12 0 -11 107 8 653 7 184 10 215 22 205
10 -8 11 -14 3 -22 -5 -5 -10 -17 -10 -25 0 -8 3 -11 6 -8 4 3 15 2 26 -4 18
-10 18 -9 8 11 -11 20 -10 21 12 16 l23 -6 -22 11 c-31 16 -29 31 1 19 13 -5
27 -6 32 -2 4 4 4 -1 1 -11 -4 -10 -3 -16 2 -12 6 3 9 14 8 25 -1 14 -9 20
-25 20 -34 0 -19 15 18 18 19 2 29 -1 25 -8 -3 -5 0 -10 8 -10 11 0 13 7 9 23
-5 19 -4 20 11 8 9 -7 14 -17 11 -22 -3 -5 0 -9 6 -9 17 0 24 31 9 41 -11 7
-11 9 -1 9 7 0 10 5 6 12 -4 7 -3 8 4 4 8 -5 11 0 9 15 -1 14 4 23 16 24 20 4
23 -15 5 -33 -9 -9 -9 -12 1 -12 7 0 9 -5 6 -10 -4 -6 -12 -7 -18 -4 -8 4 -7
2 1 -7 11 -12 14 -12 22 1 5 8 7 18 4 22 -3 4 2 18 11 31 8 13 12 27 8 32 -5
4 1 5 11 1 17 -6 17 -5 5 10 -13 16 -11 17 12 12 24 -4 27 -2 24 19 l-2 24 21
-20 c12 -12 26 -21 32 -21 5 0 1 5 -8 11 -23 13 -23 31 -2 27 10 -2 19 3 21
10 3 7 -1 10 -10 6 -8 -3 -17 1 -20 10 -3 8 1 17 9 20 8 3 14 0 14 -7 0 -7 9
2 20 18 11 17 20 26 20 21 0 -5 7 -3 15 4 8 7 12 16 9 21 -3 5 0 9 7 9 7 0 4
7 -7 15 -18 14 -18 14 4 8 26 -6 29 5 5 23 -16 12 -16 12 5 7 12 -3 22 -9 22
-14 0 -5 4 -9 10 -9 5 0 7 6 4 14 -3 8 0 17 7 22 8 5 10 3 5 -7 -4 -8 0 -5 8
5 9 11 16 23 16 28 0 4 6 5 14 2 8 -3 17 0 21 5 3 6 11 9 16 6 9 -6 13 7 10
37 -2 21 19 34 29 18 6 -9 11 -7 19 9 7 11 9 21 5 21 -3 0 -1 7 6 15 7 8 18
15 24 14 7 0 6 -2 -1 -6 -7 -2 -13 -9 -13 -14 0 -4 7 -6 15 -3 8 4 15 18 15
33 0 15 9 33 20 41 11 8 20 20 20 27 0 7 4 13 10 13 5 0 9 -3 7 -7 -1 -5 2
-10 8 -13 12 -6 14 30 2 47 -8 12 10 30 20 19 12 -11 43 16 43 37 0 27 17 47
41 47 19 0 34 33 24 50 -4 6 2 7 18 1 18 -7 26 -5 35 10 7 10 13 22 13 26 3
15 39 34 51 27 7 -4 8 -3 4 4 -4 7 -1 12 8 12 9 0 16 5 16 10 0 6 10 10 23 10
17 0 19 2 7 9 -8 6 -18 7 -24 4 -5 -4 -2 4 7 17 14 21 28 26 72 31 6 1 19 -2
29 -7 14 -5 17 -4 12 4 -4 7 -2 12 4 12 7 0 10 6 7 14 -3 8 1 17 9 20 9 3 12
10 9 16 -4 6 1 7 11 3 13 -5 16 -3 11 10 -4 11 -2 14 9 10 7 -3 14 0 14 7 0 7
6 10 14 7 7 -3 19 0 25 6 13 13 15 41 2 33 -5 -4 -4 5 2 18 6 13 17 21 24 19
9 -3 11 0 7 10 -3 10 2 20 15 27 12 6 21 7 21 3 0 -4 6 1 13 11 22 30 82 35
462 42 204 4 371 7 372 8 1 1 26 1 55 0 l53 -2 -3 -119z m981 118 l77 -1 0
-1550 c0 -1084 -3 -1550 -11 -1550 -5 0 -7 5 -4 10 3 6 -1 10 -9 10 -13 0 -13
-3 0 -27 12 -25 12 -28 -3 -32 -10 -2 -19 2 -21 8 -2 6 -10 11 -18 11 -8 0
-14 5 -14 10 0 7 6 7 20 0 11 -6 20 -7 20 -2 0 16 -28 34 -42 27 -7 -4 -5 0 5
8 21 18 22 33 1 41 -14 5 -15 4 -5 -7 9 -11 8 -17 -3 -26 -8 -6 -12 -21 -9
-31 3 -12 0 -20 -7 -20 -6 0 -14 9 -17 20 -3 11 -9 20 -14 20 -5 0 -9 7 -9 15
0 9 -7 18 -15 21 -8 4 -12 11 -8 18 9 15 -47 -22 -70 -45 -21 -23 -35 -25 -17
-4 10 12 10 15 -2 15 -18 0 -43 -28 -53 -58 -9 -31 -24 -19 -17 14 3 19 1 25
-7 20 -6 -4 -11 -2 -11 4 0 6 -5 8 -11 4 -8 -4 -6 -10 6 -17 14 -7 15 -11 4
-17 -8 -5 -17 -2 -25 8 -11 15 -13 12 -19 -21 -4 -20 -12 -37 -17 -37 -6 0 -7
7 -4 16 7 18 -11 57 -23 49 -5 -3 -8 -21 -7 -40 1 -28 -2 -34 -14 -29 -33 13
-49 12 -55 -4 -6 -15 -8 -15 -22 3 -13 17 -15 17 -9 2 3 -10 2 -16 -3 -12 -5
3 -19 -7 -30 -21 -16 -21 -27 -25 -48 -21 l-28 5 25 -21 c18 -15 20 -18 6 -13
-10 3 -25 1 -32 -5 -8 -6 -14 -9 -14 -6 0 3 16 194 35 424 19 230 39 486 45
568 6 83 15 200 20 260 6 61 10 113 10 118 0 4 20 7 44 7 l44 0 7 88 c20 256
51 748 48 755 -2 4 -22 7 -44 7 -37 0 -39 1 -39 33 0 17 14 241 30 496 22 345
27 467 19 477 -15 19 -109 18 -135 -1 -19 -13 -23 -12 -45 11 l-23 25 244 -5
c135 -2 280 -5 323 -5z m-576 -165 l53 -41 0 -60 c-1 -33 -5 -118 -10 -190 -5
-71 -14 -218 -20 -325 -6 -107 -13 -205 -16 -217 -4 -23 -7 -23 -141 -23
l-136 0 7 123 c25 469 48 855 52 875 4 21 9 18 82 -39 42 -34 101 -80 129
-103z m-4357 -41 c0 -8 -8 -19 -19 -24 -14 -8 -20 -27 -25 -80 -6 -59 -12 -75
-36 -99 -16 -16 -32 -26 -37 -21 -4 4 -23 11 -42 16 -48 12 -58 32 -41 82 11
35 11 43 -4 66 -10 15 -15 30 -11 33 7 8 158 40 193 41 13 1 22 -5 22 -14z
m-3425 -82 c10 -21 19 -56 21 -78 7 -96 19 -138 44 -156 24 -17 93 -27 310
-45 106 -9 100 -4 100 -92 0 -89 -12 -142 -39 -166 -18 -16 -19 -16 -30 15 -6
17 -14 67 -17 110 -6 74 -16 100 -32 85 -3 -4 -9 -57 -12 -119 -9 -145 -30
-201 -89 -241 -25 -16 -58 -29 -78 -30 -27 -1 -38 -7 -44 -24 -5 -13 -5 -21 0
-18 10 6 21 -27 21 -64 0 -14 6 -36 13 -50 8 -16 11 -36 6 -53 -4 -15 -3 -42
2 -60 5 -17 9 -34 9 -36 0 -2 -12 0 -27 3 -18 4 -23 3 -15 -2 11 -7 10 -12 -3
-26 -9 -9 -21 -16 -27 -16 -6 0 -9 3 -6 6 7 6 -27 44 -40 44 -4 0 -15 -12 -24
-27 -10 -16 -18 -23 -18 -16 0 6 4 15 10 18 6 4 5 14 -4 28 -17 27 -32 112
-18 104 5 -4 12 -25 15 -48 7 -53 15 -59 37 -31 10 12 24 22 30 22 7 0 10 7 6
15 -3 9 1 18 9 21 19 8 20 44 1 44 -7 0 -21 -11 -30 -25 -9 -14 -20 -25 -24
-25 -5 0 -18 63 -29 141 -11 77 -25 144 -29 149 -15 14 -57 23 -50 11 10 -16
-1 -13 -24 6 -11 10 -20 26 -20 36 0 10 -15 27 -34 38 -41 24 -43 35 -56 289
-7 165 -7 176 11 192 10 9 19 20 19 25 0 9 116 82 131 83 3 0 14 -17 24 -37z
m-8106 -127 c8 -10 9 -16 1 -21 -14 -9 -13 -72 3 -82 6 -4 41 -18 76 -30 75
-27 70 -23 73 -54 2 -15 -2 -23 -10 -21 -37 7 -79 -52 -91 -127 -6 -34 -9 -36
-56 -44 -65 -11 -75 2 -75 102 0 79 23 261 34 280 10 15 31 14 45 -3z m7383
-386 c19 -184 18 -182 35 -168 14 11 15 8 9 -22 l-7 -35 18 24 c10 13 30 35
46 50 15 14 27 32 27 39 0 10 7 12 26 8 55 -14 59 -26 65 -210 3 -94 5 -172 5
-173 -1 -1 -21 3 -44 9 -34 8 -42 14 -36 27 4 9 9 39 11 67 4 43 2 55 -19 78
-35 41 -91 49 -154 21 l-49 -21 -1 -54 c0 -31 -6 -56 -12 -58 -7 -2 -12 -14
-12 -27 0 -46 -85 -42 -110 4 -5 10 -43 47 -85 82 -69 58 -86 79 -84 103 0 5
-5 12 -12 17 -14 8 -14 153 0 192 5 12 4 29 -2 38 -6 9 -7 24 -4 33 6 16 9 16
37 0 40 -24 48 -54 62 -224 10 -123 14 -149 32 -168 50 -56 51 -53 48 123 -3
147 -1 171 19 239 25 84 24 83 124 81 l60 -1 7 -74z m-417 -102 l11 -141 -81
7 c-44 3 -118 6 -165 6 -107 0 -120 7 -91 48 30 43 27 52 -11 41 -33 -9 -88
-12 -88 -5 0 8 133 136 141 136 4 0 11 -5 15 -12 5 -8 11 -6 19 5 11 15 89 38
138 40 9 1 17 5 17 10 0 5 16 7 35 5 19 -2 35 0 35 6 0 5 3 6 7 2 4 -3 12 -70
18 -148z m-805 -204 c0 -101 -3 -153 -10 -149 -5 3 -10 13 -10 21 0 8 -12 20
-26 26 -26 12 -26 12 -19 98 9 118 21 160 45 160 19 0 20 -8 20 -156z m1496
85 c0 -36 3 -69 6 -75 4 -5 2 -31 -4 -58 -9 -45 -8 -50 20 -90 26 -35 37 -42
83 -51 39 -8 49 -13 36 -18 -28 -10 -87 -8 -87 3 0 6 -8 5 -20 -2 -15 -10 -25
-10 -38 -2 -15 10 -17 32 -20 188 -2 141 0 177 10 174 9 -3 13 -26 14 -69z
m-7613 -69 c-1 -19 -5 -49 -8 -67 -7 -30 -6 -32 31 -39 52 -10 76 -39 69 -84
-3 -19 -8 -82 -11 -140 -3 -63 -10 -112 -18 -125 -16 -25 -212 -93 -226 -79
-5 5 1 48 15 104 29 111 50 228 66 360 6 52 13 99 16 103 3 4 19 7 36 5 30 -3
32 -6 30 -38z m15377 -174 c0 -17 -3 -47 -6 -67 -5 -32 -11 -38 -44 -48 -53
-16 -78 -14 -83 7 -16 59 -16 70 3 92 11 13 20 26 20 31 0 10 71 26 93 21 12
-3 17 -14 17 -36z m-14981 -35 c29 -31 60 -71 67 -88 8 -18 20 -33 27 -33 22
-1 -18 -19 -111 -50 -104 -35 -132 -37 -132 -12 0 30 14 41 60 44 59 4 68 32
16 53 -35 15 -40 22 -50 87 -6 30 -3 39 15 51 29 21 45 13 108 -52z m5546 -51
c-3 -5 1 -10 9 -10 15 0 20 -11 17 -37 -1 -6 3 -14 8 -17 5 -3 7 -14 4 -25 -2
-10 2 -25 11 -33 8 -9 12 -18 9 -22 -11 -11 -9 -76 2 -76 5 0 4 -4 -3 -9 -10
-6 -10 -10 3 -21 13 -11 15 -9 17 11 1 13 2 31 3 39 0 8 4 20 8 27 8 13 47 13
47 0 0 -5 -8 -6 -17 -3 -15 5 -15 4 1 -9 13 -10 23 -11 31 -5 7 5 15 7 18 3 4
-3 7 -107 7 -230 l0 -224 -37 3 -38 3 -3 70 c-3 92 -33 154 -58 120 -8 -11
-19 -12 -52 -3 -50 13 -73 36 -74 77 -1 18 -5 34 -10 37 -4 3 -6 8 -4 12 5 9
23 144 29 214 1 9 8 15 17 13 12 -2 16 4 14 26 -1 20 3 29 13 29 10 0 13 6 9
16 -7 18 0 34 15 34 6 0 7 -4 4 -10z m6525 -19 c0 -5 -4 -11 -10 -13 -5 -1 1
-8 14 -14 19 -9 23 -8 22 5 0 9 -5 19 -11 23 -6 5 -6 8 2 8 6 0 19 -7 27 -16
9 -8 16 -11 16 -5 0 6 11 11 25 11 16 0 25 -6 25 -16 0 -14 1 -14 16 0 20 20
34 20 34 0 0 -8 -4 -12 -10 -9 -5 3 -10 1 -10 -4 0 -6 5 -11 11 -11 5 0 8 -4
5 -9 -4 -5 4 -7 16 -3 12 3 17 7 10 10 -14 4 -16 32 -2 32 6 0 10 -6 11 -12 0
-10 2 -10 6 0 7 18 24 15 21 -5 -2 -10 3 -18 10 -18 7 0 17 -7 22 -15 9 -13
10 -13 10 0 1 12 3 11 11 -3 13 -21 4 -51 -12 -42 -6 4 -5 -2 2 -14 8 -11 16
-16 19 -11 6 9 34 -10 37 -25 1 -6 2 -39 4 -75 1 -49 -1 -64 -11 -62 -11 3
-11 0 0 -13 11 -14 10 -17 -8 -21 -12 -4 -19 -11 -15 -20 3 -8 -4 -33 -15 -57
-30 -63 -87 -258 -113 -384 -25 -124 -24 -123 -122 -123 -24 0 -48 -7 -59 -17
-10 -9 -21 -14 -24 -11 -3 3 0 203 5 444 6 242 11 454 11 472 0 22 5 32 15 32
8 0 15 -4 15 -9z m539 -58 c13 -17 13 -17 8 0 -4 11 -1 17 8 17 11 0 14 -35
15 -192 0 -106 -2 -270 -6 -365 l-7 -171 -38 -10 c-44 -11 -44 -12 -54 83 -4
32 -8 62 -11 66 -6 11 -46 213 -45 234 0 10 -4 24 -10 31 -5 6 -11 46 -13 89
-3 65 -1 80 15 96 11 11 16 19 13 19 -4 0 7 13 24 29 16 16 28 32 24 35 -3 3
0 6 6 6 7 0 12 7 12 15 0 8 5 15 10 15 6 0 10 -4 10 -10 0 -5 6 -10 13 -10 6
0 -1 12 -16 26 l-29 25 28 -5 c16 -3 35 -14 43 -23z m-708 -1243 c6 -443 13
-924 16 -1070 l4 -266 -46 3 c-28 2 -59 -4 -77 -13 -16 -8 -31 -14 -33 -12 -1
2 -7 13 -14 25 -10 20 -7 23 37 39 26 10 54 23 63 31 8 7 20 13 26 13 10 0 24
89 16 99 -2 2 -28 6 -58 9 l-55 4 3 -53 c2 -29 9 -55 15 -57 7 -2 12 -8 12
-13 0 -10 -44 -12 -78 -3 l-22 6 2 1152 3 1151 30 -2 c25 -2 27 -1 10 6 -11 5
-15 10 -10 10 6 1 3 6 -5 11 -11 7 -11 10 -2 10 7 0 11 4 7 9 -3 5 -1 12 4 15
5 4 13 1 17 -5 5 -8 3 -9 -6 -4 -9 5 -11 4 -6 -4 4 -6 12 -9 17 -5 5 3 7 10 4
15 -6 9 7 13 40 9 16 -1 18 1 8 11 -18 18 -16 34 2 19 13 -10 15 -9 15 9 0 12
6 21 15 21 13 0 14 -4 5 -20 -9 -16 -8 -20 5 -20 11 0 16 13 17 53 2 28 4 -45
5 -163 1 -118 7 -577 14 -1020z m1609 990 c27 -29 40 -73 40 -142 0 -20 4 -38
10 -40 11 -4 -8 -88 -21 -88 -14 0 -47 -73 -49 -110 -3 -55 -2 -58 31 -77 29
-17 31 -21 27 -70 -6 -66 -42 -115 -101 -138 -103 -39 -197 42 -197 169 0 38
4 48 25 62 14 9 25 26 25 38 0 30 10 38 28 24 8 -7 3 5 -12 26 -14 21 -26 49
-26 62 0 12 -4 26 -10 29 -5 3 -10 26 -10 51 0 25 4 43 9 40 5 -3 16 12 25 33
8 22 20 42 26 46 12 8 13 -6 1 -38 -9 -22 -7 -25 22 -31 38 -8 60 10 35 28
-10 7 -18 16 -18 20 0 3 8 6 18 7 13 0 12 3 -5 11 -27 13 -28 17 -9 53 16 30
61 63 89 64 11 1 31 -12 47 -29z m702 -102 c3 -22 8 -23 153 -31 83 -4 183
-10 222 -13 l73 -6 -15 -28 c-17 -33 -11 -42 22 -29 35 13 50 11 29 -4 -9 -7
-26 -31 -36 -54 -18 -41 -18 -43 -1 -65 10 -13 20 -32 22 -43 4 -17 18 -25 78
-42 17 -4 11 -72 -18 -205 -11 -51 -30 -148 -42 -216 -12 -67 -25 -124 -28
-127 -4 -2 -34 0 -67 5 -32 5 -170 24 -306 42 -210 28 -248 35 -248 49 0 19
98 723 105 756 4 19 16 27 47 32 4 0 8 -9 10 -21z m693 -112 c17 -1 21 -9 23
-49 3 -42 0 -49 -17 -54 -12 -3 -21 -10 -21 -16 0 -5 -19 -27 -42 -49 -42 -38
-42 -38 -10 -27 17 6 45 26 61 45 17 19 32 34 35 34 2 0 2 -28 -1 -62 -2 -35
-12 -184 -23 -331 -10 -148 -20 -270 -22 -272 -5 -5 -177 21 -184 28 -5 5 1
43 56 332 17 88 30 176 30 196 0 22 8 47 21 63 11 14 25 42 30 61 12 43 -9 90
-48 108 l-26 12 24 5 c13 4 40 0 59 -8 19 -8 44 -15 55 -16z m491 21 c2 -3
-45 -639 -51 -683 -5 -37 -10 -42 -42 -52 -26 -8 -42 -8 -56 0 -28 15 -93 -6
-114 -38 -10 -16 -23 -24 -37 -22 -25 4 -26 -33 5 447 l23 364 135 -7 c75 -4
136 -8 137 -9z m-10619 -89 c23 -46 29 -65 38 -115 l5 -32 -42 2 c-38 2 -46 8
-84 57 -41 54 -42 55 -21 64 44 17 52 24 49 45 -6 39 31 25 55 -21z m-1427
-173 c404 -49 531 -71 551 -92 4 -5 3 -48 -1 -98 -5 -49 -6 -102 -3 -117 6
-29 -10 -39 -21 -13 -3 8 -13 15 -22 15 -21 0 -54 -28 -54 -45 0 -11 -53 -30
-73 -26 -5 1 -6 -3 -2 -8 14 -24 -47 -34 -269 -42 -127 -4 -248 -8 -268 -9
l-38 0 0 103 c0 56 3 160 7 230 l6 129 26 -5 c14 -3 87 -13 161 -22z m951 -95
c15 -9 19 -21 18 -68 0 -31 -4 -79 -10 -107 -20 -109 -21 -125 -10 -139 9 -11
5 -15 -21 -19 -68 -11 -145 -7 -158 8 -16 20 -17 273 -1 303 8 15 23 22 54 25
85 7 109 7 128 -3z m7852 -185 c31 -1 59 -4 61 -6 2 -2 0 -31 -5 -64 -5 -33
-13 -116 -19 -185 -5 -69 -21 -186 -35 -260 -14 -74 -36 -189 -48 -255 l-23
-120 -32 -3 -32 -3 0 456 0 457 38 -7 c20 -4 63 -9 95 -10z m290 -31 c26 -4
45 -10 43 -13 -6 -8 25 -152 109 -515 14 -60 25 -126 25 -146 0 -37 -2 -39
-40 -45 -22 -4 -43 -12 -47 -19 -13 -22 -107 -48 -134 -38 -26 10 -50 5 -61
-12 -4 -6 -9 -8 -11 -6 -6 6 21 695 29 758 6 46 7 47 87 36z m627 -91 c91 -13
167 -27 169 -29 7 -7 -32 -5 -118 7 -92 12 -117 4 -106 -38 3 -13 2 -23 -1
-23 -9 0 -173 88 -199 107 -18 13 -15 14 35 8 30 -3 129 -18 220 -32z m-787
-433 l-8 -295 -62 -14 c-35 -8 -65 -12 -67 -10 -3 3 27 167 67 364 83 413 81
414 70 -45z m-9968 278 c0 -58 -3 -110 -8 -114 -12 -13 -267 -18 -290 -5 -12
6 -49 12 -82 13 l-60 3 -3 91 c-2 67 1 94 11 102 12 11 189 19 367 17 l65 0 0
-107z m10463 73 c15 -10 81 -49 147 -86 66 -37 121 -69 122 -70 6 -4 62 -290
58 -293 -15 -15 -276 -65 -285 -55 -4 4 -26 60 -49 123 -41 114 -41 115 -41
257 0 97 4 143 11 143 6 0 23 -8 37 -19z m2532 -363 c-11 -128 -20 -236 -20
-240 0 -4 -10 -5 -22 -2 -13 2 -55 7 -93 10 -67 6 -71 5 -82 -17 -18 -35 -24
-111 -10 -130 7 -8 21 -19 32 -23 16 -6 17 -9 5 -16 -8 -6 -10 -10 -4 -10 5 0
16 6 23 13 11 10 12 9 7 -3 -3 -8 -9 -23 -12 -32 -4 -10 -12 -18 -18 -18 -7 0
-13 -7 -13 -15 0 -10 4 -12 12 -5 7 5 15 7 18 3 4 -3 8 1 8 10 3 31 4 36 14
46 7 7 16 7 25 1 9 -6 10 -10 3 -10 -7 0 -10 -10 -7 -25 3 -17 -1 -27 -11 -31
-8 -3 -12 -10 -9 -15 8 -14 24 -11 24 4 0 8 6 14 14 14 7 0 13 -7 11 -16 -3
-17 -38 -19 -144 -6 l-53 7 6 36 c3 21 13 152 21 292 21 339 19 328 77 350 31
12 62 16 92 13 41 -5 48 -2 83 31 20 21 39 33 41 28 2 -6 -6 -115 -18 -244z
m-435 60 c-4 -40 -14 -178 -24 -306 -10 -128 -20 -235 -23 -238 -7 -6 -326 30
-333 38 -1 2 3 35 10 73 9 56 26 94 78 185 l67 114 0 83 c0 94 -12 82 115 107
123 24 117 27 110 -56z m-255 -54 c0 -75 -1 -77 -66 -193 -62 -108 -83 -170
-84 -248 0 -18 -14 -16 -39 5 -18 15 -24 44 -45 237 -14 121 -22 223 -18 226
7 8 192 46 230 48 21 1 22 -3 22 -75z m-4340 -191 c0 -76 -3 -175 -7 -220 l-6
-83 -32 0 c-18 0 -49 -7 -68 -15 -69 -29 -71 -27 -63 79 4 52 3 96 -1 99 -8 5
-380 -6 -1107 -33 -160 -6 -292 -13 -295 -16 -3 -3 -6 -94 -6 -202 l0 -197
-170 -7 c-507 -19 -949 -39 -1017 -44 l-77 -6 -6 -41 c-3 -23 -17 -184 -31
-357 -13 -173 -28 -318 -32 -322 -4 -3 -19 -10 -34 -13 -26 -7 -28 -5 -28 26
0 54 -38 1201 -45 1346 -6 131 -6 131 17 136 13 2 695 5 1516 6 l1492 1 0
-137z m1113 127 l87 0 0 -1345 c0 -1009 -3 -1345 -12 -1345 -6 0 -9 -3 -6 -6
4 -3 -2 -14 -13 -25 -15 -15 -34 -19 -101 -20 -82 -1 -83 -5 -3 -24 19 -5 24
-9 15 -13 -8 -2 -37 -15 -65 -27 -188 -86 -245 -115 -245 -122 0 -4 7 -17 15
-27 29 -39 14 -40 -18 -2 -33 39 -34 39 -53 20 -45 -43 -105 -85 -114 -79 -6
3 -10 1 -10 -6 0 -9 -3 -9 -14 0 -11 9 -20 6 -41 -14 -16 -14 -23 -25 -16 -25
7 0 0 -16 -15 -35 -14 -19 -33 -35 -42 -35 -8 0 -12 -3 -9 -7 4 -3 2 -12 -5
-20 -6 -8 -10 -38 -9 -68 1 -43 -2 -55 -13 -55 -11 0 -16 14 -18 50 -4 65 -22
65 -26 0 -2 -36 -7 -50 -18 -50 -10 0 -14 14 -14 55 0 53 -1 55 -26 55 -20 0
-24 -3 -17 -12 6 -7 13 -32 17 -54 l6 -42 -48 2 c-41 1 -47 4 -50 24 -3 17 4
26 30 37 l33 14 -29 1 c-24 0 -27 2 -16 15 10 13 9 15 -9 15 -19 0 -21 5 -21
63 0 34 5 118 10 186 34 442 75 1263 120 2404 11 280 23 513 26 519 5 8 101 9
328 5 177 -4 360 -7 409 -7z m-5191 -190 c9 -102 35 -417 57 -700 75 -942 151
-1795 192 -2159 11 -101 18 -189 15 -196 -2 -7 -18 -15 -35 -18 -33 -7 -42
-32 -19 -55 9 -9 9 -15 0 -24 -16 -16 -15 -38 2 -38 7 0 19 -7 26 -15 10 -12
16 -13 27 -3 12 10 14 3 11 -43 -3 -52 -4 -54 -30 -51 -14 2 -29 -2 -33 -7
-12 -20 -40 -11 -68 21 -21 23 -31 28 -39 20 -7 -7 -20 -12 -29 -12 -18 0 -95
-87 -86 -97 4 -3 -5 -20 -18 -38 -14 -17 -25 -35 -25 -38 0 -14 29 -6 64 18
20 13 36 20 36 14 0 -14 58 21 81 50 16 19 17 27 7 39 -11 12 -10 14 1 11 24
-8 37 -37 26 -55 -6 -9 -49 -34 -95 -55 -47 -21 -86 -43 -88 -48 -3 -10 -72
-16 -72 -6 0 28 94 164 144 207 17 15 27 27 21 27 -11 0 -54 -30 -137 -97 -29
-23 -83 -62 -120 -86 l-68 -44 0 434 c0 392 4 469 23 422 3 -7 6 2 6 20 1 20
-5 35 -14 38 -13 5 -15 168 -15 1380 l0 1375 118 -3 117 -3 17 -185z m922 88
c3 -57 8 -182 11 -278 3 -96 8 -190 11 -207 5 -33 4 -33 -35 -33 -44 0 -703
58 -707 63 -1 1 -10 108 -18 237 -9 129 -18 254 -21 278 l-5 42 379 0 378 0 7
-102z m6021 -94 c3 -26 9 -53 12 -62 5 -12 0 -14 -33 -8 -91 17 -254 60 -254
67 0 4 17 11 38 15 20 4 78 14 127 24 50 9 93 16 96 14 4 -2 10 -25 14 -50z
m-517 -249 c1 -115 -2 -213 -6 -217 -5 -5 -5 -28 -1 -51 9 -49 10 -209 0 -251
-5 -26 -17 -33 -146 -83 -206 -79 -217 -81 -260 -49 -52 40 -88 44 -129 12
l-34 -26 -6 28 c-18 90 -26 257 -24 472 l3 245 24 3 c20 3 23 0 18 -20 -3 -12
-11 -60 -18 -106 -11 -71 -11 -85 2 -92 17 -11 24 1 33 53 4 20 11 37 16 37
14 0 23 -61 11 -73 -12 -12 -14 -58 -5 -106 6 -30 8 -31 25 -15 13 12 26 14
46 9 l28 -7 -25 -10 c-33 -12 -35 -15 -17 -33 19 -18 33 -19 41 -2 3 6 3 1 0
-13 -4 -19 2 -32 20 -49 22 -21 29 -23 51 -13 17 8 25 20 25 36 0 14 8 30 18
35 9 6 12 11 6 11 -7 0 -11 68 -12 206 -2 114 -5 210 -7 215 -8 12 32 21 63
14 21 -4 33 0 47 15 13 14 31 20 64 21 25 0 64 4 86 8 22 5 45 8 50 6 6 -1 11
-81 13 -210z m166 174 c39 -10 45 -15 56 -52 17 -57 31 -160 22 -167 -4 -3
-21 -32 -37 -65 -24 -46 -39 -64 -68 -78 -21 -10 -42 -15 -47 -12 -11 7 -14
368 -3 378 9 10 27 9 77 -4z m-518 -66 c-3 -21 -8 -84 -12 -141 -6 -95 -8
-102 -23 -88 -9 8 -34 16 -56 18 l-40 3 -13 94 c-8 53 -10 97 -5 102 12 12
114 48 136 49 16 0 18 -6 13 -37z m732 12 c95 -23 253 -70 275 -82 9 -5 -14
-21 -69 -46 -17 -8 -35 -20 -38 -26 -12 -19 -57 -12 -76 11 -17 21 -20 22 -67
10 -54 -14 -78 -9 -86 16 -3 9 -16 45 -30 80 -14 34 -24 62 -21 62 2 0 53 -11
112 -25z m-3511 -107 c50 -24 101 -81 109 -124 10 -53 -2 -82 -44 -103 -50
-26 -239 -91 -263 -91 -10 0 -37 16 -58 36 -32 28 -42 46 -51 89 -10 48 -9 58
9 92 32 59 44 71 102 98 64 30 137 31 196 3z m763 -518 c-12 -413 -28 -865
-36 -986 l-6 -91 -122 -27 c-112 -26 -129 -27 -224 -18 -56 5 -105 12 -109 15
-3 4 4 64 17 134 21 118 38 198 92 433 11 47 17 97 14 112 -4 21 0 30 15 38
30 17 59 70 59 111 0 47 -39 105 -67 102 -12 -1 -24 4 -27 12 -4 12 7 15 64
15 42 0 70 4 70 10 0 21 -40 88 -55 94 -61 23 -167 -12 -210 -68 -34 -45 -32
-52 16 -48 23 3 46 -1 52 -7 9 -9 8 -11 -4 -6 -10 4 -20 2 -24 -4 -3 -6 2 -11
12 -11 16 0 16 -1 0 -17 -15 -16 -19 -16 -27 -3 -7 11 -12 7 -25 -22 -19 -48
-19 -55 4 -85 11 -13 18 -30 15 -37 -8 -21 44 -56 84 -56 l35 0 -7 -70 c-4
-39 -19 -115 -33 -168 -14 -53 -35 -158 -48 -232 -26 -150 -41 -219 -48 -226
-5 -6 -694 53 -705 60 -7 4 43 788 56 866 l7 45 115 2 c63 1 201 2 305 2 l190
1 20 30 c11 17 44 42 75 57 30 15 57 28 60 31 3 2 7 54 10 115 4 98 7 112 23
115 18 4 18 -2 13 -80 -4 -45 -9 -90 -12 -99 -8 -29 14 -69 38 -69 31 0 82
-32 109 -69 43 -58 46 -46 54 182 l7 214 77 25 c42 14 79 22 83 19 4 -3 3
-157 -2 -341z m2686 294 c29 -31 56 -64 59 -74 5 -14 15 -19 43 -17 42 1 102
-22 102 -39 0 -7 8 -15 17 -18 15 -6 12 -11 -15 -28 -21 -13 -30 -24 -24 -30
14 -14 -17 -43 -54 -52 -16 -4 -45 -25 -65 -46 -42 -44 -112 -72 -146 -59 -16
6 -32 3 -55 -10 -18 -10 -45 -21 -59 -25 -24 -5 -27 -3 -33 33 -11 74 -17 267
-9 311 8 44 9 45 57 54 34 6 50 14 53 27 3 10 17 20 32 22 14 2 30 5 35 6 5 0
33 -24 62 -55z m-6241 -33 c138 -11 294 -23 348 -26 90 -7 97 -9 97 -29 0 -11
9 -199 19 -416 11 -217 16 -398 13 -401 -10 -9 -103 -39 -122 -39 -15 0 -40
77 -40 127 0 12 -7 48 -16 80 -9 32 -19 72 -21 88 -7 37 -30 65 -54 65 -15 0
-17 -5 -12 -30 6 -31 -4 -39 -25 -18 -15 15 -24 5 -42 -42 -7 -19 -18 -48 -25
-65 -7 -16 -15 -92 -18 -168 -5 -127 -7 -139 -28 -156 -17 -13 -34 -17 -65
-13 -25 2 -44 0 -48 -7 -4 -6 -30 -11 -57 -11 -40 0 -55 -5 -76 -26 -29 -29
-53 -25 -53 8 0 13 -16 255 -35 538 -19 283 -35 525 -35 538 0 27 -19 27 295
3z m1551 -246 c36 -38 51 -80 61 -162 4 -41 9 -50 21 -46 13 5 14 0 9 -33 -4
-21 -7 -47 -7 -56 0 -10 -9 -27 -20 -38 -29 -29 -60 -114 -60 -165 0 -41 3
-45 43 -67 41 -23 42 -24 45 -81 2 -46 -2 -65 -19 -93 -48 -78 -142 -117 -225
-95 -77 21 -143 121 -144 217 0 44 3 53 30 72 22 17 30 31 30 55 0 43 -32 147
-46 147 -6 0 -14 27 -18 61 -6 63 0 92 15 68 6 -11 9 -11 12 1 35 115 90 214
132 235 17 8 47 15 69 15 31 0 45 -7 72 -35z m-7552 -537 c3 -29 6 -210 6
-401 0 -269 -3 -349 -12 -352 -13 -4 -1332 -86 -1379 -85 -26 0 -26 1 -38 118
-6 64 -22 250 -36 412 -21 254 -22 297 -10 306 23 17 762 49 1211 52 l251 2 7
-52z m3029 -380 c10 -9 25 -56 41 -133 13 -66 34 -166 46 -223 12 -57 20 -105
18 -107 -2 -2 -113 -5 -248 -7 l-245 -3 3 35 c4 51 47 117 90 139 81 41 273
112 284 105 7 -4 5 1 -4 11 -12 13 -21 15 -30 8 -17 -13 -155 -63 -174 -63 -8
0 -14 3 -13 8 0 10 94 80 122 92 51 21 70 46 75 99 5 54 9 58 35 39z m2817
-46 c0 -4 15 -6 33 -5 92 9 175 7 193 -5 8 -5 2 -88 -22 -302 -18 -162 -43
-385 -56 -494 l-22 -199 -44 -19 c-24 -11 -48 -16 -52 -11 -4 4 -19 157 -34
338 -15 182 -33 411 -41 510 -15 188 -14 194 28 195 9 0 17 -4 17 -8z m320
-387 c6 -148 13 -298 16 -332 6 -62 6 -63 -22 -74 -16 -6 -50 -13 -75 -16 -46
-5 -46 -5 -42 23 25 207 95 726 101 749 6 25 7 21 9 -25 1 -30 7 -176 13 -325z
m249 349 c86 -9 172 -20 191 -25 38 -9 28 -9 -152 7 -58 5 -78 4 -78 -5 0 -16
70 -251 121 -406 22 -66 42 -145 46 -176 l6 -56 -67 -18 c-82 -22 -81 -31 3
-11 58 14 80 9 66 -14 -3 -5 -12 -10 -19 -10 -22 0 -74 -30 -80 -46 -9 -23
-95 -58 -146 -60 -25 -1 -52 -3 -60 -5 -16 -4 -19 42 -34 599 l-7 242 27 0
c14 0 97 -7 183 -16z m412 -209 l193 -95 43 -157 c23 -87 42 -163 43 -170 0
-6 -48 -22 -112 -37 -62 -15 -131 -31 -152 -36 -22 -5 -43 -7 -48 -4 -4 3 -13
24 -19 47 -7 23 -18 49 -24 57 -7 8 -35 66 -63 128 -50 110 -51 115 -58 237
-4 69 -4 125 -1 125 3 0 92 -43 198 -95z m2673 -115 c5 -5 5 -42 1 -84 l-7
-76 -48 0 c-53 0 -60 -9 -60 -82 0 -28 4 -38 16 -38 13 0 14 3 4 15 -9 11 -9
22 0 50 13 40 17 41 49 19 20 -14 22 -22 17 -55 -4 -27 -3 -39 5 -39 13 0 11
-76 -13 -512 -11 -214 -24 -280 -30 -155 l-3 62 -52 3 -53 3 -1 -38 c-1 -21
-5 -51 -9 -68 -6 -25 -8 -21 -9 25 -2 68 -6 75 -55 83 -21 3 -79 26 -130 50
-50 24 -144 68 -208 97 -65 30 -118 58 -118 64 1 43 58 191 111 291 l64 120
58 3 57 3 0 58 0 59 -47 9 c-47 8 -48 9 -45 43 2 19 7 38 10 42 4 4 66 21 137
37 116 27 142 30 240 25 60 -2 114 -9 119 -14z m-524 -89 c0 -22 -5 -41 -10
-43 -6 -2 -12 -35 -14 -73 -4 -63 -11 -82 -66 -185 -35 -66 -70 -147 -81 -190
-11 -41 -24 -79 -29 -84 -7 -7 -31 0 -72 20 l-62 31 -27 234 c-14 129 -24 237
-20 241 5 6 339 85 369 87 8 1 12 -13 12 -38z m-5828 -33 c3 -7 12 -48 19 -93
10 -71 10 -85 -5 -112 -9 -18 -16 -42 -16 -55 0 -13 -6 -35 -14 -49 -7 -14
-16 -37 -19 -51 -4 -15 -24 -45 -45 -67 l-38 -41 -110 0 c-95 0 -116 3 -162
25 -61 28 -117 32 -158 10 -57 -30 -58 -14 -1 39 31 29 57 59 57 65 0 7 -8 25
-18 39 -10 15 -35 58 -55 95 -38 69 -43 102 -30 181 l6 39 291 -7 c198 -5 293
-11 298 -18z m-794 -203 c2 -2 8 -21 13 -42 7 -30 5 -40 -8 -50 -28 -21 -146
-57 -191 -57 -41 -1 -43 0 -37 24 9 36 44 89 70 106 38 25 133 37 153 19z
m3834 -171 c1 -31 -1 -59 -7 -64 -5 -4 -32 -15 -60 -23 -27 -8 -57 -18 -66
-22 -13 -5 -18 5 -28 51 -6 32 -8 61 -4 65 7 7 134 46 155 48 3 1 8 -24 10
-55z m566 -60 c46 -7 54 -18 67 -86 6 -29 3 -36 -19 -47 -29 -16 -26 -32 4
-24 11 3 26 0 34 -6 8 -7 25 -9 38 -6 21 5 27 0 47 -44 14 -28 33 -52 45 -56
11 -4 23 -8 26 -9 3 -1 25 -5 50 -9 64 -11 94 -38 85 -77 -5 -22 -3 -30 7 -30
7 0 -11 -22 -41 -49 -43 -39 -52 -52 -46 -69 4 -13 2 -22 -4 -22 -6 0 -11 5
-11 11 0 15 -45 3 -70 -18 -14 -13 -17 -20 -8 -30 8 -10 6 -13 -6 -13 -9 0
-16 -8 -16 -21 0 -11 4 -18 9 -15 10 7 9 -20 -2 -30 -3 -3 -4 -19 0 -34 4 -22
0 -31 -18 -40 -19 -10 -24 -10 -34 4 -11 14 -14 14 -31 -6 -10 -12 -14 -18 -8
-15 7 4 17 0 23 -7 12 -14 9 -17 -34 -28 -5 -2 -9 8 -10 22 0 28 -3 30 -46 30
-25 0 -30 -3 -25 -16 6 -16 -9 -44 -24 -44 -4 0 -7 12 -8 28 0 15 -12 104 -26
197 -14 94 -26 210 -26 258 0 82 2 88 23 97 21 8 21 9 1 9 -18 1 -22 9 -28 54
-3 28 -6 76 -6 106 0 50 1 53 23 48 12 -4 41 -9 65 -13z m-184 -66 c3 -40 8
-120 12 -178 3 -57 7 -107 10 -111 2 -4 6 -94 7 -199 l3 -190 -93 -60 c-78
-50 -100 -60 -137 -60 -25 0 -48 5 -51 10 -3 6 -24 10 -46 10 -21 0 -39 4 -39
9 0 10 -46 42 -64 45 -6 1 -17 5 -24 10 -8 5 -18 4 -25 -3 -6 -6 -18 -11 -28
-11 -9 0 -30 -14 -47 -30 -18 -16 -38 -30 -45 -30 -14 0 -57 36 -57 48 0 5 -9
57 -20 118 -17 90 -50 385 -50 445 0 21 82 59 88 41 6 -20 30 -13 34 11 2 14
11 23 27 25 22 4 23 1 17 -30 -23 -109 -19 -120 50 -122 46 -1 49 -3 52 -29 2
-16 -1 -34 -7 -41 -8 -9 -4 -19 17 -37 29 -26 46 -26 71 -1 19 19 28 204 13
295 -8 51 -7 59 9 68 10 5 29 7 42 4 16 -4 30 0 42 12 12 11 52 24 109 34 135
25 123 30 130 -53z m-3670 -34 c5 -12 15 -14 50 -9 25 4 50 3 58 -1 7 -4 24
-8 38 -8 19 -1 24 -6 22 -19 -4 -22 24 -57 45 -57 19 0 27 -28 13 -45 -18 -22
-6 -42 29 -50 29 -6 53 -25 32 -25 -7 0 -6 -10 0 -30 9 -26 14 -28 31 -19 15
8 25 6 44 -6 35 -22 27 -49 -16 -56 l-35 -6 33 -8 c44 -10 40 -27 -6 -24 -23
2 -47 -4 -62 -14 -37 -26 -71 -21 -126 18 -46 33 -54 35 -127 35 l-78 0 -21
-35 c-21 -37 -38 -42 -19 -7 6 12 11 23 11 26 0 10 -78 7 -84 -3 -3 -5 -27
-21 -52 -36 -41 -24 -49 -26 -71 -14 -19 10 -28 10 -43 1 -11 -7 -35 -12 -53
-12 -19 0 -56 -7 -83 -15 -61 -18 -64 -18 -64 -1 0 8 -16 20 -35 27 -19 7 -35
18 -35 24 0 7 -9 20 -19 29 -15 14 -24 15 -40 6 -19 -10 -21 -8 -21 18 0 17 9
37 23 50 21 20 25 20 43 7 10 -8 31 -15 46 -15 15 0 30 -4 33 -10 10 -16 35
-12 62 10 14 11 22 20 18 20 -16 0 22 34 53 47 55 23 176 138 168 159 -8 20
26 34 81 35 26 0 68 6 93 13 25 8 48 14 51 15 4 0 10 -6 13 -15z m4421 -17
c166 -31 170 -33 173 -58 4 -37 -18 -52 -54 -38 -16 6 -57 11 -92 11 -35 1
-65 5 -68 10 -3 4 -20 8 -39 8 -19 0 -37 5 -40 10 -4 6 -22 9 -41 8 -32 -3
-36 0 -54 40 l-19 42 32 0 c18 -1 109 -15 202 -33z"/>
<path d="M11070 8705 c-42 -11 -56 -11 -62 -2 -5 8 -8 7 -8 -5 0 -9 -9 -20
-20 -23 -20 -6 -26 -42 -20 -112 2 -26 -26 -43 -72 -43 -55 0 -108 -19 -108
-38 0 -10 5 -23 12 -30 9 -9 8 -16 -6 -30 -16 -19 -16 -20 6 -26 13 -3 43 -6
68 -6 l46 0 -4 -35 c-4 -37 -11 -42 -29 -24 -14 14 -33 3 -33 -19 -1 -31 -25
-51 -59 -50 -24 1 -35 7 -39 20 -6 24 -29 23 -43 -3 -13 -25 -9 -352 4 -366
12 -12 579 -4 594 9 11 9 66 114 68 128 0 3 10 20 23 38 13 17 21 32 17 32 -3
0 12 22 32 49 21 27 46 61 55 77 9 16 29 44 44 62 l28 33 -26 -6 c-15 -4 -29
-2 -32 4 -4 6 -1 11 6 11 8 0 22 6 32 13 18 13 18 14 1 35 -18 20 -28 57 -26
97 0 11 1 29 1 40 1 25 51 49 85 41 14 -4 25 -2 25 3 0 5 -9 11 -20 14 -25 6
-26 27 -1 27 34 0 81 22 81 38 0 12 -3 13 -12 4 -15 -15 -53 -15 -78 0 -15 9
-43 9 -129 0 -61 -7 -118 -15 -127 -19 -12 -4 -15 -1 -12 13 4 21 0 20 113 30
75 7 77 8 40 15 -22 5 -65 9 -95 10 -30 0 -102 2 -160 4 -66 2 -125 -2 -160
-10z"/>
<path d="M10474 7902 c-20 -14 -44 -57 -44 -80 0 -35 52 -82 90 -82 39 0 90
47 90 83 0 14 -12 39 -26 56 -20 24 -34 31 -62 31 -21 0 -42 -4 -48 -8z"/>
<path d="M12973 2784 c-8 -4 -13 -27 -13 -63 l0 -58 53 -7 c28 -3 71 -6 95 -6
40 0 42 1 28 16 -9 8 -16 24 -16 34 0 22 26 50 45 50 8 0 19 -8 24 -17 9 -15
10 -12 11 15 l0 32 -79 0 c-43 0 -91 2 -107 5 -16 2 -35 2 -41 -1z"/>
<path d="M2165 3689 c-213 -9 -285 -16 -285 -27 1 -15 26 -39 47 -46 30 -10
41 -61 17 -87 -9 -10 -26 -19 -37 -19 -17 0 -19 -5 -12 -46 4 -29 19 -62 41
-91 19 -24 34 -48 34 -53 0 -5 3 -15 6 -23 4 -11 -2 -17 -23 -20 -25 -4 -25
-4 7 -6 44 -2 79 -21 39 -21 -14 0 -41 -5 -59 -11 l-33 -12 7 -91 c7 -104 14
-136 29 -136 5 0 15 -7 21 -15 9 -13 30 -13 145 -5 81 6 137 14 142 21 4 7 17
9 33 5 19 -5 26 -3 26 8 0 8 -6 19 -14 23 -7 4 -13 17 -13 28 2 80 1 82 -60
96 -50 12 -58 18 -65 44 -13 52 15 82 187 197 150 101 262 168 281 168 4 0 -7
-11 -26 -25 -38 -28 -34 -33 10 -10 21 11 31 12 36 3 5 -7 10 -4 15 10 5 13
23 25 48 33 44 13 58 42 45 93 l-6 26 -192 -2 c-105 0 -281 -5 -391 -9z"/>
<path d="M2360 3125 c-10 -12 -10 -19 -2 -27 15 -15 15 -55 0 -60 -6 -2 -9
-12 -5 -21 5 -14 19 -17 79 -16 71 1 153 16 101 18 -15 1 -32 16 -50 43 -39
60 -37 58 -59 62 -10 3 -26 7 -35 11 -9 3 -22 -1 -29 -10z"/>
</g>
</svg>
