<svg xmlns="http://www.w3.org/2000/svg" xmlns:xlink="http://www.w3.org/1999/xlink" width="1200" zoomAndPan="magnify" viewBox="0 0 900 374.999991" height="500" preserveAspectRatio="xMidYMid meet" version="1.0"><defs><g/></defs><rect x="-90" width="1080" fill="#ffffff" y="-37.499999" height="449.999989" fill-opacity="1"/><rect x="-90" width="1080" fill="#ffffff" y="-37.499999" height="449.999989" fill-opacity="1"/><rect x="-90" width="1080" fill="#000000" y="-37.499999" height="449.999989" fill-opacity="1"/><g fill="#ffffff" fill-opacity="1"><g transform="translate(69.907627, 225.749985)"><g><path d="M 33.078125 -73.21875 C 41.253906 -73.21875 47.507812 -71.171875 51.84375 -67.078125 C 56.175781 -62.984375 58.757812 -57.503906 59.59375 -50.640625 L 44.921875 -50.640625 C 44.503906 -54.390625 43.253906 -57.300781 41.171875 -59.375 C 39.097656 -61.457031 36.222656 -62.5 32.546875 -62.5 C 29.566406 -62.5 27.140625 -61.769531 25.265625 -60.3125 C 23.398438 -58.863281 22.46875 -56.75 22.46875 -53.96875 C 22.46875 -50.925781 23.59375 -48.535156 25.84375 -46.796875 C 28.09375 -45.066406 32.0625 -43.539062 37.75 -42.21875 C 45.582031 -40.414062 51.351562 -37.675781 55.0625 -34 C 58.769531 -30.332031 60.625 -25.585938 60.625 -19.765625 C 60.625 -13.242188 58.054688 -8.078125 52.921875 -4.265625 C 47.796875 -0.453125 41.523438 1.453125 34.109375 1.453125 C 25.378906 1.453125 18.410156 -0.46875 13.203125 -4.3125 C 8.003906 -8.164062 5.0625 -13.800781 4.375 -21.21875 L 19.03125 -21.21875 C 19.789062 -17.40625 21.519531 -14.457031 24.21875 -12.375 C 26.925781 -10.289062 30.15625 -9.25 33.90625 -9.25 C 37.226562 -9.25 40.015625 -10.082031 42.265625 -11.75 C 44.523438 -13.414062 45.65625 -15.597656 45.65625 -18.296875 C 45.65625 -21.347656 44.5625 -23.8125 42.375 -25.6875 C 40.195312 -27.5625 36.503906 -29.125 31.296875 -30.375 C 23.253906 -32.3125 17.257812 -34.890625 13.3125 -38.109375 C 9.363281 -41.335938 7.390625 -46.035156 7.390625 -52.203125 C 7.390625 -58.585938 9.882812 -63.6875 14.875 -67.5 C 19.863281 -71.3125 25.929688 -73.21875 33.078125 -73.21875 Z M 33.078125 -73.21875 "/></g></g></g><g fill="#ffffff" fill-opacity="1"><g transform="translate(133.134823, 225.749985)"><g><path d="M 71.453125 -71.765625 L 71.453125 0 L 57.203125 0 L 57.203125 -29.4375 L 23.609375 -29.4375 L 23.609375 0 L 9.25 0 L 9.25 -71.765625 L 23.609375 -71.765625 L 23.609375 -40.875 L 57.203125 -40.875 L 57.203125 -71.765625 Z M 71.453125 -71.765625 "/></g></g></g><g fill="#ffffff" fill-opacity="1"><g transform="translate(211.336885, 225.749985)"><g><path d="M 48.15625 -21.625 L 24.03125 -21.625 L 16.84375 0 L 1.5625 0 L 27.453125 -71.765625 L 45.453125 -71.765625 L 70.828125 0 L 55.21875 0 Z M 36.1875 -59.484375 L 27.65625 -32.96875 L 44.515625 -32.96875 Z M 36.1875 -59.484375 "/></g></g></g><g fill="#ffffff" fill-opacity="1"><g transform="translate(281.635534, 225.749985)"><g><path d="M 72.28125 0 L 52.625 0 L 23.09375 -54.5 C 23.4375 -47.976562 23.609375 -40.628906 23.609375 -32.453125 L 23.609375 0 L 9.25 0 L 9.25 -71.765625 L 28.28125 -71.765625 L 58.453125 -16.21875 C 58.097656 -22.664062 57.921875 -30.191406 57.921875 -38.796875 L 57.921875 -71.765625 L 72.171875 -71.765625 Z M 72.28125 0 "/></g></g></g><g fill="#ffffff" fill-opacity="1"><g transform="translate(360.669525, 225.749985)"><g><path d="M 42.125 -36.609375 L 71.03125 -36.609375 L 71.03125 0 L 59.484375 0 L 58.546875 -11.640625 L 55.328125 -4.375 C 51.378906 -0.488281 45.554688 1.453125 37.859375 1.453125 C 27.867188 1.453125 19.941406 -1.851562 14.078125 -8.46875 C 8.222656 -15.09375 5.296875 -24.09375 5.296875 -35.46875 C 5.296875 -46.976562 8.625 -56.144531 15.28125 -62.96875 C 21.9375 -69.800781 30.394531 -73.21875 40.65625 -73.21875 C 50.019531 -73.21875 57.335938 -70.945312 62.609375 -66.40625 C 67.878906 -61.863281 70.894531 -55.882812 71.65625 -48.46875 L 71.765625 -47.421875 L 57.40625 -47.421875 L 57.203125 -48.46875 C 55.328125 -57.820312 49.742188 -62.5 40.453125 -62.5 C 34.554688 -62.5 29.753906 -60.140625 26.046875 -55.421875 C 22.335938 -50.710938 20.484375 -44.335938 20.484375 -36.296875 C 20.484375 -27.628906 22.285156 -20.953125 25.890625 -16.265625 C 29.492188 -11.585938 34.210938 -9.25 40.046875 -9.25 C 44.691406 -9.25 48.554688 -10.671875 51.640625 -13.515625 C 54.722656 -16.359375 56.609375 -20.3125 57.296875 -25.375 L 42.125 -25.375 Z M 42.125 -36.609375 "/></g></g></g><g fill="#ffffff" fill-opacity="1"><g transform="translate(437.311701, 225.749985)"><g><path d="M 41.28125 -27.765625 L 41.28125 0 L 27.046875 0 L 27.046875 -27.765625 L 1.65625 -71.765625 L 17.890625 -71.765625 L 34.625 -40.453125 L 50.859375 -71.765625 L 66.65625 -71.765625 Z M 41.28125 -27.765625 "/></g></g></g><g fill="#ffffff" fill-opacity="1"><g transform="translate(502.410772, 225.749985)"><g><path d="M 67.5 -71.765625 L 67.5 -29.21875 C 67.5 -25.820312 67.425781 -23.015625 67.28125 -20.796875 C 66.800781 -14.285156 64.148438 -8.945312 59.328125 -4.78125 C 54.515625 -0.625 47.390625 1.453125 37.953125 1.453125 C 28.460938 1.453125 21.304688 -0.625 16.484375 -4.78125 C 11.660156 -8.945312 9.007812 -14.285156 8.53125 -20.796875 C 8.382812 -23.015625 8.3125 -25.820312 8.3125 -29.21875 L 8.3125 -71.765625 L 22.5625 -71.765625 L 22.5625 -27.765625 C 22.5625 -25.335938 22.632812 -23.601562 22.78125 -22.5625 C 23.125 -18.332031 24.5625 -15.054688 27.09375 -12.734375 C 29.625 -10.410156 33.242188 -9.25 37.953125 -9.25 C 42.597656 -9.25 46.1875 -10.410156 48.71875 -12.734375 C 51.25 -15.054688 52.691406 -18.332031 53.046875 -22.5625 C 53.179688 -23.601562 53.25 -25.335938 53.25 -27.765625 L 53.25 -71.765625 Z M 67.5 -71.765625 "/></g></g></g><g fill="#ffffff" fill-opacity="1"><g transform="translate(575.413224, 225.749985)"><g><path d="M 72.28125 0 L 52.625 0 L 23.09375 -54.5 C 23.4375 -47.976562 23.609375 -40.628906 23.609375 -32.453125 L 23.609375 0 L 9.25 0 L 9.25 -71.765625 L 28.28125 -71.765625 L 58.453125 -16.21875 C 58.097656 -22.664062 57.921875 -30.191406 57.921875 -38.796875 L 57.921875 -71.765625 L 72.171875 -71.765625 Z M 72.28125 0 "/></g></g></g><g fill="#ffffff" fill-opacity="1"><g transform="translate(654.447215, 225.749985)"><g><path d="M 103.0625 -71.765625 L 84.03125 0 L 65 0 L 52.734375 -59.703125 L 39.828125 0 L 20.703125 0 L 2.703125 -71.765625 L 18.203125 -71.765625 L 30.265625 -11.03125 L 42.953125 -70.71875 L 63.125 -70.71875 L 75.40625 -10.8125 L 88.296875 -71.765625 Z M 103.0625 -71.765625 "/></g></g></g><g fill="#ffffff" fill-opacity="1"><g transform="translate(757.087391, 225.749985)"><g><path d="M 67.5 -71.765625 L 67.5 -29.21875 C 67.5 -25.820312 67.425781 -23.015625 67.28125 -20.796875 C 66.800781 -14.285156 64.148438 -8.945312 59.328125 -4.78125 C 54.515625 -0.625 47.390625 1.453125 37.953125 1.453125 C 28.460938 1.453125 21.304688 -0.625 16.484375 -4.78125 C 11.660156 -8.945312 9.007812 -14.285156 8.53125 -20.796875 C 8.382812 -23.015625 8.3125 -25.820312 8.3125 -29.21875 L 8.3125 -71.765625 L 22.5625 -71.765625 L 22.5625 -27.765625 C 22.5625 -25.335938 22.632812 -23.601562 22.78125 -22.5625 C 23.125 -18.332031 24.5625 -15.054688 27.09375 -12.734375 C 29.625 -10.410156 33.242188 -9.25 37.953125 -9.25 C 42.597656 -9.25 46.1875 -10.410156 48.71875 -12.734375 C 51.25 -15.054688 52.691406 -18.332031 53.046875 -22.5625 C 53.179688 -23.601562 53.25 -25.335938 53.25 -27.765625 L 53.25 -71.765625 Z M 67.5 -71.765625 "/></g></g></g></svg>