<svg xmlns="http://www.w3.org/2000/svg" xmlns:xlink="http://www.w3.org/1999/xlink" width="1400" zoomAndPan="magnify" viewBox="0 0 1050 1049.999947" height="1400" preserveAspectRatio="xMidYMid meet" version="1.0"><defs><g/></defs><g fill="#000000" fill-opacity="1"><g transform="translate(216.603523, 912.374896)"><g><path d="M 84 -15.199219 C 84 -6.398438 89.601562 0 98.398438 0 L 462.402344 0 C 471.203125 0 476.800781 -6.398438 476.800781 -15.199219 L 476.800781 -32.800781 C 476.800781 -41.601562 483.203125 -48 492 -48 L 509.601562 -48 C 518.402344 -48 524.800781 -54.398438 524.800781 -63.199219 L 524.800781 -80 C 524.800781 -89.601562 531.203125 -96 540.800781 -96 L 556.800781 -96 C 566.402344 -96 572.800781 -102.398438 572.800781 -112 L 572.800781 -300.800781 C 572.800781 -310.402344 566.402344 -316.800781 556.800781 -316.800781 L 540.800781 -316.800781 C 531.203125 -316.800781 524.800781 -323.199219 524.800781 -332.800781 L 524.800781 -349.601562 C 524.800781 -358.402344 518.402344 -364.800781 509.601562 -364.800781 L 492 -364.800781 C 483.203125 -364.800781 476.800781 -371.199219 476.800781 -380 L 476.800781 -397.601562 C 476.800781 -406.402344 470.402344 -412.800781 461.601562 -412.800781 L 332 -412.800781 C 323.199219 -412.800781 316.800781 -419.203125 316.800781 -428 L 316.800781 -445.601562 C 316.800781 -454.402344 310.402344 -460.800781 301.601562 -460.800781 L 276 -460.800781 C 267.199219 -460.800781 260.800781 -467.203125 260.800781 -476 L 260.800781 -637.601562 C 260.800781 -646.402344 267.199219 -652.800781 276 -652.800781 L 293.601562 -652.800781 C 302.402344 -652.800781 308.800781 -659.203125 308.800781 -668.003906 L 308.800781 -685.601562 C 308.800781 -694.402344 315.199219 -700.800781 324 -700.800781 L 341.601562 -700.800781 C 350.402344 -700.800781 356.800781 -694.402344 356.800781 -685.601562 L 356.800781 -596 C 356.800781 -587.203125 363.199219 -580.800781 372 -580.800781 L 389.601562 -580.800781 C 398.402344 -580.800781 404.800781 -574.402344 404.800781 -565.601562 L 404.800781 -548 C 404.800781 -539.203125 411.203125 -532.800781 420 -532.800781 L 541.601562 -532.800781 C 550.402344 -532.800781 556.800781 -539.203125 556.800781 -548 L 556.800781 -685.601562 C 556.800781 -694.402344 550.402344 -700.800781 541.601562 -700.800781 L 484 -700.800781 C 475.203125 -700.800781 468.800781 -707.203125 468.800781 -716.003906 L 468.800781 -733.601562 C 468.800781 -742.402344 462.402344 -748.800781 453.601562 -748.800781 L 156 -748.800781 C 147.199219 -748.800781 140.800781 -742.402344 140.800781 -733.601562 L 140.800781 -716.003906 C 140.800781 -707.203125 134.402344 -700.800781 125.601562 -700.800781 L 108 -700.800781 C 99.199219 -700.800781 92.800781 -694.402344 92.800781 -685.601562 L 92.800781 -668.800781 C 92.800781 -659.203125 86.398438 -652.800781 76.800781 -652.800781 L 60.800781 -652.800781 C 51.199219 -652.800781 44.800781 -646.402344 44.800781 -636.800781 L 44.800781 -476.800781 C 44.800781 -467.203125 51.199219 -460.800781 60.800781 -460.800781 L 76.800781 -460.800781 C 86.398438 -460.800781 92.800781 -454.402344 92.800781 -444.800781 L 92.800781 -428 C 92.800781 -419.203125 99.199219 -412.800781 108 -412.800781 L 125.601562 -412.800781 C 134.402344 -412.800781 140.800781 -406.402344 140.800781 -397.601562 L 140.800781 -380 C 140.800781 -371.199219 147.199219 -364.800781 156 -364.800781 L 293.601562 -364.800781 C 302.402344 -364.800781 308.800781 -358.402344 308.800781 -349.601562 L 308.800781 -332 C 308.800781 -323.199219 315.199219 -316.800781 324 -316.800781 L 341.601562 -316.800781 C 350.402344 -316.800781 356.800781 -310.402344 356.800781 -301.601562 L 356.800781 -111.199219 C 356.800781 -102.398438 350.402344 -96 341.601562 -96 L 315.199219 -96 C 306.402344 -96 300 -89.601562 300 -80.800781 L 300 -63.199219 C 300 -54.398438 293.601562 -48 284.800781 -48 L 267.199219 -48 C 258.402344 -48 252 -54.398438 252 -63.199219 L 252 -200.800781 C 252 -209.601562 245.601562 -216 236.800781 -216 L 51.199219 -216 C 42.398438 -216 36 -209.601562 36 -200.800781 L 36 -63.199219 C 36 -54.398438 42.398438 -48 51.199219 -48 L 68.800781 -48 C 77.601562 -48 84 -41.601562 84 -32.800781 Z M 84 -15.199219 "/></g></g></g></svg>